<svg width="74" height="46" viewBox="0 0 74 46" fill="none" xmlns="http://www.w3.org/2000/svg">
<rect x="0.5" y="0.5" width="73" height="45" rx="9.5" fill="#121212" stroke="white"/>
<path d="M27.9205 26.1705C27.0455 26.1705 26.2898 25.9886 25.6534 25.625C25.0208 25.2576 24.5341 24.7386 24.1932 24.0682C23.8523 23.3939 23.6818 22.6004 23.6818 21.6875C23.6818 20.7898 23.8523 20.0019 24.1932 19.3239C24.5379 18.642 25.0189 18.1117 25.6364 17.733C26.2538 17.3504 26.9792 17.1591 27.8125 17.1591C28.3504 17.1591 28.858 17.2462 29.3352 17.4205C29.8163 17.5909 30.2405 17.8561 30.608 18.2159C30.9792 18.5758 31.2708 19.0341 31.483 19.5909C31.6951 20.1439 31.8011 20.803 31.8011 21.5682V22.1989H24.6477V20.8125H29.8295C29.8258 20.4186 29.7405 20.0682 29.5739 19.7614C29.4072 19.4508 29.1742 19.2064 28.875 19.0284C28.5795 18.8504 28.2348 18.7614 27.8409 18.7614C27.4205 18.7614 27.0511 18.8636 26.733 19.0682C26.4148 19.2689 26.1667 19.5341 25.9886 19.8636C25.8144 20.1894 25.7254 20.5473 25.7216 20.9375V22.1477C25.7216 22.6553 25.8144 23.0909 26 23.4545C26.1856 23.8144 26.4451 24.0909 26.7784 24.2841C27.1117 24.4735 27.5019 24.5682 27.9489 24.5682C28.2481 24.5682 28.5189 24.5265 28.7614 24.4432C29.0038 24.3561 29.214 24.2292 29.392 24.0625C29.5701 23.8958 29.7045 23.6894 29.7955 23.4432L31.7159 23.6591C31.5947 24.1667 31.3636 24.6098 31.0227 24.9886C30.6856 25.3636 30.2538 25.6553 29.7273 25.8636C29.2008 26.0682 28.5985 26.1705 27.9205 26.1705ZM40.4389 19.5795L38.5639 19.7841C38.5109 19.5947 38.4181 19.4167 38.2855 19.25C38.1567 19.0833 37.9825 18.9489 37.7628 18.8466C37.5431 18.7443 37.2741 18.6932 36.956 18.6932C36.5279 18.6932 36.1681 18.786 35.8764 18.9716C35.5885 19.1572 35.4465 19.3977 35.4503 19.6932C35.4465 19.947 35.5393 20.1534 35.7287 20.3125C35.9219 20.4716 36.2401 20.6023 36.6832 20.7045L38.1719 21.0227C38.9976 21.2008 39.6113 21.483 40.0128 21.8693C40.4181 22.2557 40.6226 22.7614 40.6264 23.3864C40.6226 23.9356 40.4616 24.4205 40.1435 24.8409C39.8291 25.2576 39.3916 25.5833 38.831 25.8182C38.2704 26.053 37.6264 26.1705 36.8991 26.1705C35.831 26.1705 34.9711 25.947 34.3196 25.5C33.6681 25.0492 33.2798 24.4223 33.1548 23.6193L35.1605 23.4261C35.2514 23.8201 35.4446 24.1174 35.7401 24.3182C36.0355 24.5189 36.42 24.6193 36.8935 24.6193C37.3821 24.6193 37.7741 24.5189 38.0696 24.3182C38.3688 24.1174 38.5185 23.8693 38.5185 23.5739C38.5185 23.3239 38.4219 23.1174 38.2287 22.9545C38.0393 22.7917 37.7438 22.6667 37.3423 22.5795L35.8537 22.267C35.0166 22.0928 34.3973 21.7992 33.9957 21.3864C33.5942 20.9697 33.3954 20.4432 33.3991 19.8068C33.3954 19.2689 33.5412 18.803 33.8366 18.4091C34.1359 18.0114 34.5507 17.7045 35.081 17.4886C35.6151 17.2689 36.2306 17.1591 36.9276 17.1591C37.9503 17.1591 38.7552 17.3769 39.3423 17.8125C39.9332 18.2481 40.2988 18.8371 40.4389 19.5795ZM46.1293 26.1705C45.258 26.1705 44.5099 25.9792 43.8849 25.5966C43.2637 25.214 42.7846 24.6856 42.4474 24.0114C42.1141 23.3333 41.9474 22.553 41.9474 21.6705C41.9474 20.7841 42.1179 20.0019 42.4588 19.3239C42.7997 18.642 43.2808 18.1117 43.902 17.733C44.527 17.3504 45.2656 17.1591 46.1179 17.1591C46.8262 17.1591 47.4531 17.2898 47.9986 17.5511C48.5478 17.8087 48.9853 18.1742 49.3111 18.6477C49.6368 19.1174 49.8224 19.6667 49.8679 20.2955H47.902C47.8224 19.875 47.633 19.5246 47.3338 19.2443C47.0384 18.9602 46.6425 18.8182 46.1463 18.8182C45.7259 18.8182 45.3565 18.9318 45.0384 19.1591C44.7202 19.3826 44.4721 19.7045 44.294 20.125C44.1198 20.5455 44.0327 21.0492 44.0327 21.6364C44.0327 22.2311 44.1198 22.7424 44.294 23.1705C44.4683 23.5947 44.7126 23.9223 45.027 24.1534C45.3452 24.3807 45.7183 24.4943 46.1463 24.4943C46.4493 24.4943 46.7202 24.4375 46.9588 24.3239C47.2012 24.2064 47.4039 24.0379 47.5668 23.8182C47.7296 23.5985 47.8414 23.3314 47.902 23.017H49.8679C49.8187 23.6345 49.6368 24.1818 49.3224 24.6591C49.008 25.1326 48.58 25.5038 48.0384 25.7727C47.4967 26.0379 46.8603 26.1705 46.1293 26.1705Z" fill="white"/>
<line x1="19" y1="37" x2="54" y2="37" stroke="#1B1A1A" stroke-width="2"/>
</svg>
